# This file uses centimeters as units for non-parametric coordinates.

mtllib body.mtl
g default
v -2.687700 2.642729 1.357664
v -1.494050 4.451053 0.912014
v -0.885860 4.389830 1.564974
v -1.586475 2.531874 2.539953
v -0.027940 2.658410 2.860539
v -0.031445 4.380900 1.829350
v 0.826072 4.415040 1.567622
v 1.517658 2.581130 2.565462
v 2.704392 2.740795 1.475067
v 1.481487 4.503221 0.965414
v 1.759183 4.621815 0.184087
v 3.202798 2.951919 0.039633
v 2.842477 3.127755 -1.529456
v 1.560182 4.718927 -0.682497
v 0.951993 4.780149 -1.335457
v 1.741252 3.238608 -2.711745
v 0.194197 3.254778 -3.190440
v 0.097578 4.789080 -1.599834
v -0.774123 4.743324 -1.404785
v -1.384157 3.171930 -2.837274
v -2.570891 3.012265 -1.746880
v -1.429538 4.655143 -0.802577
v -1.693049 4.548164 0.045430
v -3.048021 2.818563 -0.211427
v -3.865864 0.637940 1.777529
v -2.280292 0.478329 3.479821
v -0.048545 0.687232 4.430351
v 2.205741 0.562855 3.594664
v 3.914433 0.792745 2.024682
v 4.615436 1.083122 -0.120207
v 4.107418 1.230454 -2.436204
v 1.920380 1.422331 -4.130335
v 0.300821 2.838657 -6.111544
v -1.755936 1.218398 -4.117975
v -3.697680 1.170008 -2.692478
v -4.384664 0.891112 -0.481690
v -1.432880 4.591881 0.436037
v -2.973590 2.725096 0.596776
v -2.958910 1.464175 1.378929
v -2.169446 3.781585 1.201031
v -2.216584 2.576605 2.021851
v -1.285950 3.692649 2.149564
v -0.882159 2.617825 2.808949
v -2.343260 1.515057 3.659503
v 0.063427 1.768397 3.877471
v -0.003981 3.643872 2.559954
v 0.814674 2.611998 2.878211
v 1.202015 3.730173 2.158588
v 2.174155 2.644825 2.049451
v 2.031455 1.644553 3.746598
v 3.126092 1.834719 1.576448
v 2.154113 3.858270 1.283781
v 3.062547 2.849630 0.814423
v 2.556411 4.029645 0.143596
v 3.128367 3.045386 -0.768569
v 3.573349 1.807053 -0.082698
v 3.173772 2.002045 -1.822738
v 2.267331 4.170715 -1.115260
v 2.371360 3.193877 -2.193643
v 1.383835 4.259651 -2.063793
v 0.999686 3.259669 -3.053948
v 1.952570 2.124977 -3.133836
v 0.331577 2.154649 -3.667810
v 0.142656 4.272624 -2.447844
v -0.619117 3.225133 -3.118966
v -1.123633 4.206156 -2.164506
v -2.051292 3.099523 -2.371276
v -1.513348 2.051035 -3.273042
v -2.829375 1.873974 -2.063851
v -2.075731 4.078059 -1.289696
v -2.913089 2.916498 -1.011219
v -3.358488 1.659168 -0.361111
v -2.458526 3.922655 -0.057825
v -1.407322 4.691970 -0.319336
v -0.992922 4.779980 -0.973327
v -0.304250 4.840380 -1.332860
v 0.474162 4.856987 -1.301595
v 1.133741 4.825350 -0.887911
v 1.497752 4.753949 -0.202654
v 1.465114 4.659008 0.553891
v 1.036530 4.559384 1.141202
v 0.362042 4.510598 1.567415
v -0.412824 4.496895 1.552822
v -1.072403 4.528532 1.139138
v -3.187539 0.542734 2.733844
v -1.340598 0.784341 3.992339
v 1.153648 0.857577 4.131084
v 3.159291 0.661369 2.890755
v 4.417653 0.939244 1.014883
v 4.519052 1.111859 -1.340656
v 3.189884 1.478144 -3.848394
v 0.731764 2.425352 -4.196370
v -0.322081 1.662700 -4.483044
v -2.644928 1.382615 -3.895810
v -4.190386 1.032120 -1.633253
v -4.277497 0.756535 0.681984
v -3.557241 -0.144210 1.532089
v -2.086196 -0.292290 3.111422
v 0.025661 -0.046697 2.759369
v 2.327240 -0.197842 3.143290
v 3.674081 0.010065 1.822531
v 4.311444 0.268817 -0.228571
v 3.947709 0.492146 -2.344762
v 2.359072 0.651783 -3.903937
v 0.292474 0.673382 -4.543389
v -1.914670 0.632378 -4.211453
v -3.401204 0.349426 -2.615045
v -4.038567 0.090675 -0.563944
v 0.059466 5.284423 0.194245
v -2.344929 3.873515 0.581107
v -3.275948 1.555517 0.535144
v -2.414303 1.842726 2.177369
v -1.751112 3.757035 1.698974
v -0.675133 3.705426 2.373821
v -1.335874 1.662699 4.036586
v 1.257597 1.599673 4.089380
v 0.589825 3.728525 2.401903
v 1.689771 3.807818 1.704952
v 2.375505 2.091558 2.275537
v 3.419064 1.694638 0.782352
v 2.389281 3.970627 0.748526
v 2.441615 4.124760 -0.489907
v 3.490809 1.910703 -0.978954
v 2.651328 2.075372 -2.559288
v 1.847798 4.241239 -1.607777
v 0.771819 4.292848 -2.282624
v 1.130212 2.148332 -3.513322
v -0.664958 2.110033 -3.585425
v -0.498015 4.265758 -2.333627
v -1.621453 4.167226 -1.747117
v -2.253167 1.970739 -2.756273
v -3.208856 1.767772 -1.248041
v -2.297470 4.023656 -0.680252
v -2.927912 -0.232538 2.419327
v -0.790885 -0.051655 2.621003
v 0.850138 -0.016645 2.686915
v 3.003917 -0.225282 2.663351
v 4.131199 0.137993 0.839815
v 4.329609 0.382117 -1.328348
v 3.200788 0.592029 -3.211843
v 1.368468 0.679915 -4.361060
v -0.793972 0.633782 -4.447913
v -2.876540 0.445930 -3.637561
v -3.858322 0.221498 -1.632329
v -3.939140 -0.034181 0.515674
vn -0.830454 0.330429 0.448512
vn -0.909206 0.335609 0.246396
vn -0.776103 0.581790 0.243277
vn -0.728989 0.575489 0.370658
vn -0.758127 0.503072 0.414925
vn -0.713731 0.447015 0.539227
vn -0.587834 0.544226 0.598556
vn -0.712261 0.551896 0.433700
vn -0.775448 0.582628 0.243364
vn -0.480716 0.812689 0.329316
vn -0.350266 0.848645 0.396377
vn -0.019483 0.992541 0.120347
vn -0.453319 0.868469 0.200659
vn -0.297562 0.790778 0.534908
vn -0.436133 0.525551 0.730468
vn -0.227569 0.526403 0.819214
vn -0.149206 0.835225 0.529279
vn -0.486661 0.641683 0.592794
vn -0.632312 0.432334 0.642860
vn -0.217990 0.527898 0.820856
vn -0.188322 0.675035 0.713346
vn -0.017330 0.638390 0.769518
vn -0.019145 0.598822 0.800653
vn 0.195729 0.511211 0.836871
vn 0.159081 0.668198 0.726777
vn 0.210755 0.537626 0.816419
vn -0.028824 0.491658 0.870311
vn -0.028204 0.783563 0.620672
vn 0.117859 0.836141 0.535703
vn 0.286688 0.790279 0.541543
vn 0.424069 0.537343 0.728991
vn 0.522084 0.552706 0.649572
vn 0.303789 0.838338 0.452662
vn 0.433269 0.636263 0.638316
vn 0.561510 0.481628 0.672860
vn 0.642163 0.551481 0.532443
vn 0.598831 0.508045 0.619106
vn 0.733732 0.418878 0.534957
vn 0.680635 0.577820 0.450400
vn 0.740481 0.617412 0.265500
vn 0.862298 0.393632 0.318585
vn 0.717885 0.606052 0.342551
vn 0.622480 0.561464 0.545232
vn 0.404737 0.805167 0.433467
vn 0.401903 0.875575 0.268035
vn 0.501670 0.855419 0.128785
vn 0.770885 0.627361 0.110244
vn 0.744080 0.661042 -0.096790
vn 0.418652 0.908117 0.007377
vn 0.910851 0.403348 0.087521
vn 0.771401 0.629441 0.093508
vn 0.758534 0.641416 -0.114943
vn 0.889242 0.430009 -0.156015
vn 0.805025 0.455410 -0.380180
vn 0.682139 0.677185 -0.275875
vn 0.539830 0.718811 -0.438057
vn 0.666127 0.473775 -0.576032
vn 0.555441 0.698044 -0.451907
vn 0.680360 0.672482 -0.291338
vn 0.440686 0.886401 -0.141734
vn 0.307342 0.930373 -0.199866
vn 0.255714 0.905570 -0.338458
vn 0.403049 0.700397 -0.589063
vn 0.213633 0.714439 -0.666287
vn 0.108247 0.940856 -0.321048
vn 0.480429 0.488085 -0.728671
vn 0.397086 0.690776 -0.604277
vn 0.353130 0.714350 -0.604155
vn 0.266592 0.496567 -0.826045
vn 0.020912 0.494718 -0.868802
vn -0.311751 0.837046 -0.449627
vn -0.383639 0.673458 -0.631883
vn -0.213405 0.481630 -0.849995
vn -0.189759 0.705833 -0.682489
vn 0.013473 0.704469 -0.709607
vn -0.002670 0.909167 -0.416423
vn -0.123199 0.937116 -0.326552
vn -0.264385 0.896374 -0.355830
vn -0.383988 0.683607 -0.620673
vn -0.546645 0.674532 -0.496171
vn -0.324683 0.920468 -0.217532
vn -0.440816 0.468431 -0.765672
vn -0.364124 0.624583 -0.690876
vn -0.527773 0.677229 -0.512656
vn -0.637375 0.445966 -0.628385
vn -0.790617 0.421368 -0.444268
vn -0.668607 0.662627 -0.337476
vn -0.761986 0.628066 -0.157830
vn -0.891374 0.392022 -0.227533
vn -0.761397 0.628924 -0.157258
vn -0.682831 0.643399 -0.346091
vn -0.459825 0.870758 -0.174187
vn -0.445092 0.895238 -0.021017
vn -0.537725 0.838615 0.087039
vn -0.802772 0.594818 0.041810
vn -0.931255 0.364273 0.008321
vn -0.796024 0.603826 0.041721
vn -0.855924 0.288310 0.429269
vn -0.810943 -0.440752 0.384850
vn -0.670665 -0.460503 0.581502
vn -0.831164 0.136346 0.539052
vn -0.912420 0.326815 0.246337
vn -0.895159 -0.416467 0.158891
vn -0.483808 -0.304348 0.820550
vn -0.138709 -0.650705 0.746554
vn -0.059177 -0.848477 0.525913
vn -0.149928 -0.470380 0.869635
vn -0.020119 -0.540843 0.840883
vn 0.002054 -0.897698 0.440607
vn 0.057633 -0.843415 0.534163
vn 0.140191 -0.484594 0.863432
vn 0.434179 -0.279331 0.856425
vn 0.187861 -0.618221 0.763224
vn 0.671257 -0.327770 0.664816
vn 0.740674 0.216747 0.635943
vn 0.806731 0.295825 0.511540
vn 0.808757 -0.348299 0.473919
vn 0.898686 -0.367658 0.239147
vn 0.895425 0.334872 0.293387
vn 0.906210 0.413517 0.088243
vn 0.942664 -0.331982 0.034239
vn 0.940860 -0.276982 -0.195098
vn 0.886406 0.437710 -0.150648
vn 0.801837 0.456104 -0.386039
vn 0.818924 -0.293410 -0.493228
vn 0.640760 -0.340702 -0.688004
vn 0.558848 0.482232 -0.674641
vn 0.362411 0.414218 -0.834915
vn 0.362449 -0.199081 -0.910493
vn 0.614925 -0.010036 -0.788522
vn 0.688887 0.499648 -0.525155
vn 0.352149 0.218123 -0.910172
vn 0.352887 -0.233308 -0.906112
vn -0.411593 -0.073307 -0.908415
vn -0.666274 0.389846 -0.635688
vn -0.312242 0.488298 -0.814905
vn -0.325884 0.065236 -0.943156
vn -0.715606 -0.107760 -0.690141
vn -0.532601 0.542739 -0.649439
vn -0.790895 0.438298 -0.427060
vn -0.821548 -0.236025 -0.518990
vn -0.877216 -0.359707 -0.317966
vn -0.895484 0.381181 -0.229805
vn -0.935294 0.353798 0.007191
vn -0.917870 -0.388572 -0.080787
s 1
g polySurface1 animal:Mesh
usemtl initialShadingGroup
f 1//1 38//2 111//3 39//4
f 1//1 39//4 112//5 41//6
f 1//1 41//6 113//7 40//8
f 1//1 40//8 110//9 38//2
f 2//10 40//8 113//7 84//11
f 2//10 84//11 109//12 37//13
f 2//10 37//13 110//9 40//8
f 3//14 42//15 114//16 83//17
f 3//14 83//17 109//12 84//11
f 3//14 84//11 113//7 42//15
f 4//18 41//6 112//5 44//19
f 4//18 44//19 115//20 43//21
f 4//18 43//21 114//16 42//15
f 4//18 42//15 113//7 41//6
f 5//22 43//21 115//20 45//23
f 5//22 45//23 116//24 47//25
f 5//22 47//25 117//26 46//27
f 5//22 46//27 114//16 43//21
f 6//28 46//27 117//26 82//29
f 6//28 82//29 109//12 83//17
f 6//28 83//17 114//16 46//27
f 7//30 48//31 118//32 81//33
f 7//30 81//33 109//12 82//29
f 7//30 82//29 117//26 48//31
f 8//34 47//25 116//24 50//35
f 8//34 50//35 119//36 49//37
f 8//34 49//37 118//32 48//31
f 8//34 48//31 117//26 47//25
f 9//38 49//37 119//36 51//39
f 9//38 51//39 120//40 53//41
f 9//38 53//41 121//42 52//43
f 9//38 52//43 118//32 49//37
f 10//44 52//43 121//42 80//45
f 10//44 80//45 109//12 81//33
f 10//44 81//33 118//32 52//43
f 11//46 54//47 122//48 79//49
f 11//46 79//49 109//12 80//45
f 11//46 80//45 121//42 54//47
f 12//50 53//41 120//40 56//51
f 12//50 56//51 123//52 55//53
f 12//50 55//53 122//48 54//47
f 12//50 54//47 121//42 53//41
f 13//54 55//53 123//52 57//55
f 13//54 57//55 124//56 59//57
f 13//54 59//57 125//58 58//59
f 13//54 58//59 122//48 55//53
f 14//60 58//59 125//58 78//61
f 14//60 78//61 109//12 79//49
f 14//60 79//49 122//48 58//59
f 15//62 60//63 126//64 77//65
f 15//62 77//65 109//12 78//61
f 15//62 78//61 125//58 60//63
f 16//66 59//57 124//56 62//67
f 16//66 62//67 127//68 61//69
f 16//66 61//69 126//64 60//63
f 16//66 60//63 125//58 59//57
f 17//70 61//69 127//68 63//71
f 17//70 63//71 128//72 65//73
f 17//70 65//73 129//74 64//75
f 17//70 64//75 126//64 61//69
f 18//76 64//75 129//74 76//77
f 18//76 76//77 109//12 77//65
f 18//76 77//65 126//64 64//75
f 19//78 66//79 130//80 75//81
f 19//78 75//81 109//12 76//77
f 19//78 76//77 129//74 66//79
f 20//82 65//73 128//72 68//83
f 20//82 68//83 131//84 67//85
f 20//82 67//85 130//80 66//79
f 20//82 66//79 129//74 65//73
f 21//86 67//85 131//84 69//87
f 21//86 69//87 132//88 71//89
f 21//86 71//89 133//90 70//91
f 21//86 70//91 130//80 67//85
f 22//92 70//91 133//90 74//93
f 22//92 74//93 109//12 75//81
f 22//92 75//81 130//80 70//91
f 23//94 73//95 110//9 37//13
f 23//94 37//13 109//12 74//93
f 23//94 74//93 133//90 73//95
f 24//96 71//89 132//88 72//97
f 24//96 72//97 111//3 38//2
f 24//96 38//2 110//9 73//95
f 24//96 73//95 133//90 71//89
f 25//98 97//99 134//100 85//101
f 25//98 85//101 112//5 39//4
f 25//98 39//4 111//3 96//102
f 25//98 96//102 145//103 97//99
f 26//104 98//105 135//106 86//107
f 26//104 86//107 115//20 44//19
f 26//104 44//19 112//5 85//101
f 26//104 85//101 134//100 98//105
f 27//108 99//109 136//110 87//111
f 27//108 87//111 116//24 45//23
f 27//108 45//23 115//20 86//107
f 27//108 86//107 135//106 99//109
f 28//112 100//113 137//114 88//115
f 28//112 88//115 119//36 50//35
f 28//112 50//35 116//24 87//111
f 28//112 87//111 136//110 100//113
f 29//116 101//117 138//118 89//119
f 29//116 89//119 120//40 51//39
f 29//116 51//39 119//36 88//115
f 29//116 88//115 137//114 101//117
f 30//120 102//121 139//122 90//123
f 30//120 90//123 123//52 56//51
f 30//120 56//51 120//40 89//119
f 30//120 89//119 138//118 102//121
f 31//124 103//125 140//126 91//127
f 31//124 91//127 124//56 57//55
f 31//124 57//55 123//52 90//123
f 31//124 90//123 139//122 103//125
f 32//128 104//129 141//130 92//131
f 32//128 92//131 127//68 62//67
f 32//128 62//67 124//56 91//127
f 32//128 91//127 140//126 104//129
f 33//132 105//133 142//134 93//135
f 33//132 93//135 128//72 63//71
f 33//132 63//71 127//68 92//131
f 33//132 92//131 141//130 105//133
f 34//136 106//137 143//138 94//139
f 34//136 94//139 131//84 68//83
f 34//136 68//83 128//72 93//135
f 34//136 93//135 142//134 106//137
f 35//140 107//141 144//142 95//143
f 35//140 95//143 132//88 69//87
f 35//140 69//87 131//84 94//139
f 35//140 94//139 143//138 107//141
f 36//144 108//145 145//103 96//102
f 36//144 96//102 111//3 72//97
f 36//144 72//97 132//88 95//143
f 36//144 95//143 144//142 108//145
